M48
; DRILL file {KiCad (5.1.2)-1} date 06/05/2019 14:38:36
; FORMAT={-:-/ absolute / inch / decimal}
; #@! TF.CreationDate,2019-05-06T14:38:36+02:00
; #@! TF.GenerationSoftware,Kicad,Pcbnew,(5.1.2)-1
FMAT,2
INCH
T1C0.0394
T2C0.0669
T3C0.0787
T4C0.1732
T5C0.1260
%
G90
G05
T1
X4.3Y-3.1547
X4.3Y-3.2531
X4.3Y-3.3516
X4.3Y-3.45
X5.1Y-3.1547
X5.1Y-3.2531
X5.1Y-3.3516
X5.1Y-3.45
X4.4Y-3.7
X4.5Y-3.7
X4.6Y-3.7
X4.7Y-3.7
X4.8Y-3.7
X4.9Y-3.7
X5.0Y-3.7
T2
X4.1531Y-2.85
X4.35Y-2.85
X5.05Y-2.85
X5.2469Y-2.85
T3
X4.55Y-4.0
X4.85Y-4.0
T4
X4.9665Y-2.5
X5.25Y-2.5
X4.15Y-2.5
X4.4335Y-2.5
T5
X5.35Y-4.05
X4.05Y-2.15
X5.35Y-2.15
X4.7Y-3.1
X4.05Y-4.05
T0
M30
