G04 #@! TF.GenerationSoftware,KiCad,Pcbnew,(5.1.2)-1*
G04 #@! TF.CreationDate,2019-09-18T14:31:41+02:00*
G04 #@! TF.ProjectId,Balance_Adapter_Board_For_2_3s_Lipos,42616c61-6e63-4655-9f41-646170746572,rev?*
G04 #@! TF.SameCoordinates,Original*
G04 #@! TF.FileFunction,Drawing*
%FSLAX46Y46*%
G04 Gerber Fmt 4.6, Leading zero omitted, Abs format (unit mm)*
G04 Created by KiCad (PCBNEW (5.1.2)-1) date 2019-09-18 14:31:41*
%MOMM*%
%LPD*%
G04 APERTURE LIST*
%ADD10C,0.300000*%
%ADD11C,1.250000*%
G04 APERTURE END LIST*
D10*
X148741428Y-83633571D02*
X148455714Y-83633571D01*
X148312857Y-83705000D01*
X148170000Y-83847857D01*
X148098571Y-84133571D01*
X148098571Y-84633571D01*
X148170000Y-84919285D01*
X148312857Y-85062142D01*
X148455714Y-85133571D01*
X148741428Y-85133571D01*
X148884285Y-85062142D01*
X149027142Y-84919285D01*
X149098571Y-84633571D01*
X149098571Y-84133571D01*
X149027142Y-83847857D01*
X148884285Y-83705000D01*
X148741428Y-83633571D01*
X147455714Y-84133571D02*
X147455714Y-85133571D01*
X147455714Y-84276428D02*
X147384285Y-84205000D01*
X147241428Y-84133571D01*
X147027142Y-84133571D01*
X146884285Y-84205000D01*
X146812857Y-84347857D01*
X146812857Y-85133571D01*
X145884285Y-85133571D02*
X146027142Y-85062142D01*
X146098571Y-84919285D01*
X146098571Y-83633571D01*
X145455714Y-84133571D02*
X145098571Y-85133571D01*
X144741428Y-84133571D02*
X145098571Y-85133571D01*
X145241428Y-85490714D01*
X145312857Y-85562142D01*
X145455714Y-85633571D01*
X142384285Y-84133571D02*
X142384285Y-85133571D01*
X143027142Y-84133571D02*
X143027142Y-84919285D01*
X142955714Y-85062142D01*
X142812857Y-85133571D01*
X142598571Y-85133571D01*
X142455714Y-85062142D01*
X142384285Y-84990714D01*
X141741428Y-85062142D02*
X141598571Y-85133571D01*
X141312857Y-85133571D01*
X141170000Y-85062142D01*
X141098571Y-84919285D01*
X141098571Y-84847857D01*
X141170000Y-84705000D01*
X141312857Y-84633571D01*
X141527142Y-84633571D01*
X141670000Y-84562142D01*
X141741428Y-84419285D01*
X141741428Y-84347857D01*
X141670000Y-84205000D01*
X141527142Y-84133571D01*
X141312857Y-84133571D01*
X141170000Y-84205000D01*
X139884285Y-85062142D02*
X140027142Y-85133571D01*
X140312857Y-85133571D01*
X140455714Y-85062142D01*
X140527142Y-84919285D01*
X140527142Y-84347857D01*
X140455714Y-84205000D01*
X140312857Y-84133571D01*
X140027142Y-84133571D01*
X139884285Y-84205000D01*
X139812857Y-84347857D01*
X139812857Y-84490714D01*
X140527142Y-84633571D01*
X138027142Y-85133571D02*
X138027142Y-84133571D01*
X138027142Y-83633571D02*
X138098571Y-83705000D01*
X138027142Y-83776428D01*
X137955714Y-83705000D01*
X138027142Y-83633571D01*
X138027142Y-83776428D01*
X137527142Y-84133571D02*
X136955714Y-84133571D01*
X137312857Y-83633571D02*
X137312857Y-84919285D01*
X137241428Y-85062142D01*
X137098571Y-85133571D01*
X136955714Y-85133571D01*
X135455714Y-84133571D02*
X135170000Y-85133571D01*
X134884285Y-84419285D01*
X134598571Y-85133571D01*
X134312857Y-84133571D01*
X133741428Y-85133571D02*
X133741428Y-83633571D01*
X133098571Y-85133571D02*
X133098571Y-84347857D01*
X133170000Y-84205000D01*
X133312857Y-84133571D01*
X133527142Y-84133571D01*
X133670000Y-84205000D01*
X133741428Y-84276428D01*
X131812857Y-85062142D02*
X131955714Y-85133571D01*
X132241428Y-85133571D01*
X132384285Y-85062142D01*
X132455714Y-84919285D01*
X132455714Y-84347857D01*
X132384285Y-84205000D01*
X132241428Y-84133571D01*
X131955714Y-84133571D01*
X131812857Y-84205000D01*
X131741428Y-84347857D01*
X131741428Y-84490714D01*
X132455714Y-84633571D01*
X131098571Y-84133571D02*
X131098571Y-85133571D01*
X131098571Y-84276428D02*
X131027142Y-84205000D01*
X130884285Y-84133571D01*
X130670000Y-84133571D01*
X130527142Y-84205000D01*
X130455714Y-84347857D01*
X130455714Y-85133571D01*
X128741428Y-84133571D02*
X128384285Y-85133571D01*
X128027142Y-84133571D02*
X128384285Y-85133571D01*
X128527142Y-85490714D01*
X128598571Y-85562142D01*
X128741428Y-85633571D01*
X127241428Y-85133571D02*
X127384285Y-85062142D01*
X127455714Y-84990714D01*
X127527142Y-84847857D01*
X127527142Y-84419285D01*
X127455714Y-84276428D01*
X127384285Y-84205000D01*
X127241428Y-84133571D01*
X127027142Y-84133571D01*
X126884285Y-84205000D01*
X126812857Y-84276428D01*
X126741428Y-84419285D01*
X126741428Y-84847857D01*
X126812857Y-84990714D01*
X126884285Y-85062142D01*
X127027142Y-85133571D01*
X127241428Y-85133571D01*
X125455714Y-84133571D02*
X125455714Y-85133571D01*
X126098571Y-84133571D02*
X126098571Y-84919285D01*
X126027142Y-85062142D01*
X125884285Y-85133571D01*
X125670000Y-85133571D01*
X125527142Y-85062142D01*
X125455714Y-84990714D01*
X123598571Y-85133571D02*
X123598571Y-83633571D01*
X123455714Y-84562142D02*
X123027142Y-85133571D01*
X123027142Y-84133571D02*
X123598571Y-84705000D01*
X122384285Y-84133571D02*
X122384285Y-85133571D01*
X122384285Y-84276428D02*
X122312857Y-84205000D01*
X122170000Y-84133571D01*
X121955714Y-84133571D01*
X121812857Y-84205000D01*
X121741428Y-84347857D01*
X121741428Y-85133571D01*
X120812857Y-85133571D02*
X120955714Y-85062142D01*
X121027142Y-84990714D01*
X121098571Y-84847857D01*
X121098571Y-84419285D01*
X121027142Y-84276428D01*
X120955714Y-84205000D01*
X120812857Y-84133571D01*
X120598571Y-84133571D01*
X120455714Y-84205000D01*
X120384285Y-84276428D01*
X120312857Y-84419285D01*
X120312857Y-84847857D01*
X120384285Y-84990714D01*
X120455714Y-85062142D01*
X120598571Y-85133571D01*
X120812857Y-85133571D01*
X119812857Y-84133571D02*
X119527142Y-85133571D01*
X119241428Y-84419285D01*
X118955714Y-85133571D01*
X118670000Y-84133571D01*
X117098571Y-84133571D02*
X116812857Y-85133571D01*
X116527142Y-84419285D01*
X116241428Y-85133571D01*
X115955714Y-84133571D01*
X115384285Y-85133571D02*
X115384285Y-83633571D01*
X114741428Y-85133571D02*
X114741428Y-84347857D01*
X114812857Y-84205000D01*
X114955714Y-84133571D01*
X115170000Y-84133571D01*
X115312857Y-84205000D01*
X115384285Y-84276428D01*
X113384285Y-85133571D02*
X113384285Y-84347857D01*
X113455714Y-84205000D01*
X113598571Y-84133571D01*
X113884285Y-84133571D01*
X114027142Y-84205000D01*
X113384285Y-85062142D02*
X113527142Y-85133571D01*
X113884285Y-85133571D01*
X114027142Y-85062142D01*
X114098571Y-84919285D01*
X114098571Y-84776428D01*
X114027142Y-84633571D01*
X113884285Y-84562142D01*
X113527142Y-84562142D01*
X113384285Y-84490714D01*
X112884285Y-84133571D02*
X112312857Y-84133571D01*
X112670000Y-83633571D02*
X112670000Y-84919285D01*
X112598571Y-85062142D01*
X112455714Y-85133571D01*
X112312857Y-85133571D01*
X110812857Y-84133571D02*
X110455714Y-85133571D01*
X110098571Y-84133571D02*
X110455714Y-85133571D01*
X110598571Y-85490714D01*
X110670000Y-85562142D01*
X110812857Y-85633571D01*
X109312857Y-85133571D02*
X109455714Y-85062142D01*
X109527142Y-84990714D01*
X109598571Y-84847857D01*
X109598571Y-84419285D01*
X109527142Y-84276428D01*
X109455714Y-84205000D01*
X109312857Y-84133571D01*
X109098571Y-84133571D01*
X108955714Y-84205000D01*
X108884285Y-84276428D01*
X108812857Y-84419285D01*
X108812857Y-84847857D01*
X108884285Y-84990714D01*
X108955714Y-85062142D01*
X109098571Y-85133571D01*
X109312857Y-85133571D01*
X107527142Y-84133571D02*
X107527142Y-85133571D01*
X108170000Y-84133571D02*
X108170000Y-84919285D01*
X108098571Y-85062142D01*
X107955714Y-85133571D01*
X107741428Y-85133571D01*
X107598571Y-85062142D01*
X107527142Y-84990714D01*
X105027142Y-85133571D02*
X105027142Y-84347857D01*
X105098571Y-84205000D01*
X105241428Y-84133571D01*
X105527142Y-84133571D01*
X105670000Y-84205000D01*
X105027142Y-85062142D02*
X105170000Y-85133571D01*
X105527142Y-85133571D01*
X105670000Y-85062142D01*
X105741428Y-84919285D01*
X105741428Y-84776428D01*
X105670000Y-84633571D01*
X105527142Y-84562142D01*
X105170000Y-84562142D01*
X105027142Y-84490714D01*
X104312857Y-85133571D02*
X104312857Y-84133571D01*
X104312857Y-84419285D02*
X104241428Y-84276428D01*
X104170000Y-84205000D01*
X104027142Y-84133571D01*
X103884285Y-84133571D01*
X102812857Y-85062142D02*
X102955714Y-85133571D01*
X103241428Y-85133571D01*
X103384285Y-85062142D01*
X103455714Y-84919285D01*
X103455714Y-84347857D01*
X103384285Y-84205000D01*
X103241428Y-84133571D01*
X102955714Y-84133571D01*
X102812857Y-84205000D01*
X102741428Y-84347857D01*
X102741428Y-84490714D01*
X103455714Y-84633571D01*
X100312857Y-85133571D02*
X100312857Y-83633571D01*
X100312857Y-85062142D02*
X100455714Y-85133571D01*
X100741428Y-85133571D01*
X100884285Y-85062142D01*
X100955714Y-84990714D01*
X101027142Y-84847857D01*
X101027142Y-84419285D01*
X100955714Y-84276428D01*
X100884285Y-84205000D01*
X100741428Y-84133571D01*
X100455714Y-84133571D01*
X100312857Y-84205000D01*
X99384285Y-85133571D02*
X99527142Y-85062142D01*
X99598571Y-84990714D01*
X99670000Y-84847857D01*
X99670000Y-84419285D01*
X99598571Y-84276428D01*
X99527142Y-84205000D01*
X99384285Y-84133571D01*
X99170000Y-84133571D01*
X99027142Y-84205000D01*
X98955714Y-84276428D01*
X98884285Y-84419285D01*
X98884285Y-84847857D01*
X98955714Y-84990714D01*
X99027142Y-85062142D01*
X99170000Y-85133571D01*
X99384285Y-85133571D01*
X98241428Y-85133571D02*
X98241428Y-84133571D01*
X98241428Y-83633571D02*
X98312857Y-83705000D01*
X98241428Y-83776428D01*
X98170000Y-83705000D01*
X98241428Y-83633571D01*
X98241428Y-83776428D01*
X97527142Y-84133571D02*
X97527142Y-85133571D01*
X97527142Y-84276428D02*
X97455714Y-84205000D01*
X97312857Y-84133571D01*
X97098571Y-84133571D01*
X96955714Y-84205000D01*
X96884285Y-84347857D01*
X96884285Y-85133571D01*
X95527142Y-84133571D02*
X95527142Y-85347857D01*
X95598571Y-85490714D01*
X95670000Y-85562142D01*
X95812857Y-85633571D01*
X96027142Y-85633571D01*
X96170000Y-85562142D01*
X95527142Y-85062142D02*
X95670000Y-85133571D01*
X95955714Y-85133571D01*
X96098571Y-85062142D01*
X96170000Y-84990714D01*
X96241428Y-84847857D01*
X96241428Y-84419285D01*
X96170000Y-84276428D01*
X96098571Y-84205000D01*
X95955714Y-84133571D01*
X95670000Y-84133571D01*
X95527142Y-84205000D01*
X94812857Y-84990714D02*
X94741428Y-85062142D01*
X94812857Y-85133571D01*
X94884285Y-85062142D01*
X94812857Y-84990714D01*
X94812857Y-85133571D01*
X94812857Y-84562142D02*
X94884285Y-83705000D01*
X94812857Y-83633571D01*
X94741428Y-83705000D01*
X94812857Y-84562142D01*
X94812857Y-83633571D01*
D11*
X156368571Y-80288095D02*
X156130476Y-80050000D01*
X155654285Y-79811904D01*
X154463809Y-79811904D01*
X153987619Y-80050000D01*
X153749523Y-80288095D01*
X153511428Y-80764285D01*
X153511428Y-81240476D01*
X153749523Y-81954761D01*
X156606666Y-84811904D01*
X153511428Y-84811904D01*
X87471428Y-84811904D02*
X90328571Y-84811904D01*
X88900000Y-84811904D02*
X88900000Y-79811904D01*
X89376190Y-80526190D01*
X89852380Y-81002380D01*
X90328571Y-81240476D01*
D10*
X144225714Y-81807857D02*
X144011428Y-81879285D01*
X143940000Y-81950714D01*
X143868571Y-82093571D01*
X143868571Y-82307857D01*
X143940000Y-82450714D01*
X144011428Y-82522142D01*
X144154285Y-82593571D01*
X144725714Y-82593571D01*
X144725714Y-81093571D01*
X144225714Y-81093571D01*
X144082857Y-81165000D01*
X144011428Y-81236428D01*
X143940000Y-81379285D01*
X143940000Y-81522142D01*
X144011428Y-81665000D01*
X144082857Y-81736428D01*
X144225714Y-81807857D01*
X144725714Y-81807857D01*
X142582857Y-82593571D02*
X142582857Y-81807857D01*
X142654285Y-81665000D01*
X142797142Y-81593571D01*
X143082857Y-81593571D01*
X143225714Y-81665000D01*
X142582857Y-82522142D02*
X142725714Y-82593571D01*
X143082857Y-82593571D01*
X143225714Y-82522142D01*
X143297142Y-82379285D01*
X143297142Y-82236428D01*
X143225714Y-82093571D01*
X143082857Y-82022142D01*
X142725714Y-82022142D01*
X142582857Y-81950714D01*
X141654285Y-82593571D02*
X141797142Y-82522142D01*
X141868571Y-82379285D01*
X141868571Y-81093571D01*
X140440000Y-82593571D02*
X140440000Y-81807857D01*
X140511428Y-81665000D01*
X140654285Y-81593571D01*
X140940000Y-81593571D01*
X141082857Y-81665000D01*
X140440000Y-82522142D02*
X140582857Y-82593571D01*
X140940000Y-82593571D01*
X141082857Y-82522142D01*
X141154285Y-82379285D01*
X141154285Y-82236428D01*
X141082857Y-82093571D01*
X140940000Y-82022142D01*
X140582857Y-82022142D01*
X140440000Y-81950714D01*
X139725714Y-81593571D02*
X139725714Y-82593571D01*
X139725714Y-81736428D02*
X139654285Y-81665000D01*
X139511428Y-81593571D01*
X139297142Y-81593571D01*
X139154285Y-81665000D01*
X139082857Y-81807857D01*
X139082857Y-82593571D01*
X137725714Y-82522142D02*
X137868571Y-82593571D01*
X138154285Y-82593571D01*
X138297142Y-82522142D01*
X138368571Y-82450714D01*
X138440000Y-82307857D01*
X138440000Y-81879285D01*
X138368571Y-81736428D01*
X138297142Y-81665000D01*
X138154285Y-81593571D01*
X137868571Y-81593571D01*
X137725714Y-81665000D01*
X136511428Y-82522142D02*
X136654285Y-82593571D01*
X136940000Y-82593571D01*
X137082857Y-82522142D01*
X137154285Y-82379285D01*
X137154285Y-81807857D01*
X137082857Y-81665000D01*
X136940000Y-81593571D01*
X136654285Y-81593571D01*
X136511428Y-81665000D01*
X136440000Y-81807857D01*
X136440000Y-81950714D01*
X137154285Y-82093571D01*
X134725714Y-82165000D02*
X134011428Y-82165000D01*
X134868571Y-82593571D02*
X134368571Y-81093571D01*
X133868571Y-82593571D01*
X132725714Y-82593571D02*
X132725714Y-81093571D01*
X132725714Y-82522142D02*
X132868571Y-82593571D01*
X133154285Y-82593571D01*
X133297142Y-82522142D01*
X133368571Y-82450714D01*
X133440000Y-82307857D01*
X133440000Y-81879285D01*
X133368571Y-81736428D01*
X133297142Y-81665000D01*
X133154285Y-81593571D01*
X132868571Y-81593571D01*
X132725714Y-81665000D01*
X131368571Y-82593571D02*
X131368571Y-81807857D01*
X131440000Y-81665000D01*
X131582857Y-81593571D01*
X131868571Y-81593571D01*
X132011428Y-81665000D01*
X131368571Y-82522142D02*
X131511428Y-82593571D01*
X131868571Y-82593571D01*
X132011428Y-82522142D01*
X132082857Y-82379285D01*
X132082857Y-82236428D01*
X132011428Y-82093571D01*
X131868571Y-82022142D01*
X131511428Y-82022142D01*
X131368571Y-81950714D01*
X130654285Y-81593571D02*
X130654285Y-83093571D01*
X130654285Y-81665000D02*
X130511428Y-81593571D01*
X130225714Y-81593571D01*
X130082857Y-81665000D01*
X130011428Y-81736428D01*
X129940000Y-81879285D01*
X129940000Y-82307857D01*
X130011428Y-82450714D01*
X130082857Y-82522142D01*
X130225714Y-82593571D01*
X130511428Y-82593571D01*
X130654285Y-82522142D01*
X129511428Y-81593571D02*
X128940000Y-81593571D01*
X129297142Y-81093571D02*
X129297142Y-82379285D01*
X129225714Y-82522142D01*
X129082857Y-82593571D01*
X128940000Y-82593571D01*
X127868571Y-82522142D02*
X128011428Y-82593571D01*
X128297142Y-82593571D01*
X128440000Y-82522142D01*
X128511428Y-82379285D01*
X128511428Y-81807857D01*
X128440000Y-81665000D01*
X128297142Y-81593571D01*
X128011428Y-81593571D01*
X127868571Y-81665000D01*
X127797142Y-81807857D01*
X127797142Y-81950714D01*
X128511428Y-82093571D01*
X127154285Y-82593571D02*
X127154285Y-81593571D01*
X127154285Y-81879285D02*
X127082857Y-81736428D01*
X127011428Y-81665000D01*
X126868571Y-81593571D01*
X126725714Y-81593571D01*
X124582857Y-81807857D02*
X124368571Y-81879285D01*
X124297142Y-81950714D01*
X124225714Y-82093571D01*
X124225714Y-82307857D01*
X124297142Y-82450714D01*
X124368571Y-82522142D01*
X124511428Y-82593571D01*
X125082857Y-82593571D01*
X125082857Y-81093571D01*
X124582857Y-81093571D01*
X124440000Y-81165000D01*
X124368571Y-81236428D01*
X124297142Y-81379285D01*
X124297142Y-81522142D01*
X124368571Y-81665000D01*
X124440000Y-81736428D01*
X124582857Y-81807857D01*
X125082857Y-81807857D01*
X123368571Y-82593571D02*
X123511428Y-82522142D01*
X123582857Y-82450714D01*
X123654285Y-82307857D01*
X123654285Y-81879285D01*
X123582857Y-81736428D01*
X123511428Y-81665000D01*
X123368571Y-81593571D01*
X123154285Y-81593571D01*
X123011428Y-81665000D01*
X122940000Y-81736428D01*
X122868571Y-81879285D01*
X122868571Y-82307857D01*
X122940000Y-82450714D01*
X123011428Y-82522142D01*
X123154285Y-82593571D01*
X123368571Y-82593571D01*
X121582857Y-82593571D02*
X121582857Y-81807857D01*
X121654285Y-81665000D01*
X121797142Y-81593571D01*
X122082857Y-81593571D01*
X122225714Y-81665000D01*
X121582857Y-82522142D02*
X121725714Y-82593571D01*
X122082857Y-82593571D01*
X122225714Y-82522142D01*
X122297142Y-82379285D01*
X122297142Y-82236428D01*
X122225714Y-82093571D01*
X122082857Y-82022142D01*
X121725714Y-82022142D01*
X121582857Y-81950714D01*
X120868571Y-82593571D02*
X120868571Y-81593571D01*
X120868571Y-81879285D02*
X120797142Y-81736428D01*
X120725714Y-81665000D01*
X120582857Y-81593571D01*
X120440000Y-81593571D01*
X119297142Y-82593571D02*
X119297142Y-81093571D01*
X119297142Y-82522142D02*
X119440000Y-82593571D01*
X119725714Y-82593571D01*
X119868571Y-82522142D01*
X119940000Y-82450714D01*
X120011428Y-82307857D01*
X120011428Y-81879285D01*
X119940000Y-81736428D01*
X119868571Y-81665000D01*
X119725714Y-81593571D01*
X119440000Y-81593571D01*
X119297142Y-81665000D01*
X117654285Y-81593571D02*
X117082857Y-81593571D01*
X117440000Y-82593571D02*
X117440000Y-81307857D01*
X117368571Y-81165000D01*
X117225714Y-81093571D01*
X117082857Y-81093571D01*
X116368571Y-82593571D02*
X116511428Y-82522142D01*
X116582857Y-82450714D01*
X116654285Y-82307857D01*
X116654285Y-81879285D01*
X116582857Y-81736428D01*
X116511428Y-81665000D01*
X116368571Y-81593571D01*
X116154285Y-81593571D01*
X116011428Y-81665000D01*
X115940000Y-81736428D01*
X115868571Y-81879285D01*
X115868571Y-82307857D01*
X115940000Y-82450714D01*
X116011428Y-82522142D01*
X116154285Y-82593571D01*
X116368571Y-82593571D01*
X115225714Y-82593571D02*
X115225714Y-81593571D01*
X115225714Y-81879285D02*
X115154285Y-81736428D01*
X115082857Y-81665000D01*
X114940000Y-81593571D01*
X114797142Y-81593571D01*
X113225714Y-81236428D02*
X113154285Y-81165000D01*
X113011428Y-81093571D01*
X112654285Y-81093571D01*
X112511428Y-81165000D01*
X112440000Y-81236428D01*
X112368571Y-81379285D01*
X112368571Y-81522142D01*
X112440000Y-81736428D01*
X113297142Y-82593571D01*
X112368571Y-82593571D01*
X110725714Y-81093571D02*
X109797142Y-81093571D01*
X110297142Y-81665000D01*
X110082857Y-81665000D01*
X109940000Y-81736428D01*
X109868571Y-81807857D01*
X109797142Y-81950714D01*
X109797142Y-82307857D01*
X109868571Y-82450714D01*
X109940000Y-82522142D01*
X110082857Y-82593571D01*
X110511428Y-82593571D01*
X110654285Y-82522142D01*
X110725714Y-82450714D01*
X109225714Y-82522142D02*
X109082857Y-82593571D01*
X108797142Y-82593571D01*
X108654285Y-82522142D01*
X108582857Y-82379285D01*
X108582857Y-82307857D01*
X108654285Y-82165000D01*
X108797142Y-82093571D01*
X109011428Y-82093571D01*
X109154285Y-82022142D01*
X109225714Y-81879285D01*
X109225714Y-81807857D01*
X109154285Y-81665000D01*
X109011428Y-81593571D01*
X108797142Y-81593571D01*
X108654285Y-81665000D01*
X106082857Y-82593571D02*
X106797142Y-82593571D01*
X106797142Y-81093571D01*
X105582857Y-82593571D02*
X105582857Y-81593571D01*
X105582857Y-81093571D02*
X105654285Y-81165000D01*
X105582857Y-81236428D01*
X105511428Y-81165000D01*
X105582857Y-81093571D01*
X105582857Y-81236428D01*
X104868571Y-81593571D02*
X104868571Y-83093571D01*
X104868571Y-81665000D02*
X104725714Y-81593571D01*
X104440000Y-81593571D01*
X104297142Y-81665000D01*
X104225714Y-81736428D01*
X104154285Y-81879285D01*
X104154285Y-82307857D01*
X104225714Y-82450714D01*
X104297142Y-82522142D01*
X104440000Y-82593571D01*
X104725714Y-82593571D01*
X104868571Y-82522142D01*
X103297142Y-82593571D02*
X103440000Y-82522142D01*
X103511428Y-82450714D01*
X103582857Y-82307857D01*
X103582857Y-81879285D01*
X103511428Y-81736428D01*
X103440000Y-81665000D01*
X103297142Y-81593571D01*
X103082857Y-81593571D01*
X102940000Y-81665000D01*
X102868571Y-81736428D01*
X102797142Y-81879285D01*
X102797142Y-82307857D01*
X102868571Y-82450714D01*
X102940000Y-82522142D01*
X103082857Y-82593571D01*
X103297142Y-82593571D01*
X102225714Y-82522142D02*
X102082857Y-82593571D01*
X101797142Y-82593571D01*
X101654285Y-82522142D01*
X101582857Y-82379285D01*
X101582857Y-82307857D01*
X101654285Y-82165000D01*
X101797142Y-82093571D01*
X102011428Y-82093571D01*
X102154285Y-82022142D01*
X102225714Y-81879285D01*
X102225714Y-81807857D01*
X102154285Y-81665000D01*
X102011428Y-81593571D01*
X101797142Y-81593571D01*
X101654285Y-81665000D01*
M02*
