M48
; DRILL file {KiCad (5.1.2)-1} date 23/09/2019 16:09:50
; FORMAT={-:-/ absolute / inch / decimal}
; #@! TF.CreationDate,2019-09-23T16:09:50+02:00
; #@! TF.GenerationSoftware,Kicad,Pcbnew,(5.1.2)-1
FMAT,2
INCH
T1C0.0394
T2C0.0650
T3C0.0787
T4C0.1732
T5C0.0787
T6C0.1260
%
G90
G05
T1
X6.0047Y-2.9
X6.1031Y-2.9
X6.2016Y-2.9
X6.3Y-2.9
X4.5Y-3.075
X4.6Y-3.075
X4.7Y-3.075
X4.8Y-3.075
X4.9Y-3.075
X5.0Y-3.075
X5.1Y-3.075
X3.3Y-2.9
X3.3984Y-2.9
X3.4969Y-2.9
X3.5953Y-2.9
T2
X6.3Y-2.4031
X6.3Y-2.6
X3.3Y-2.4031
X3.3Y-2.6
T3
X4.65Y-2.4
X4.95Y-2.4
T4
X5.825Y-2.25
X5.825Y-2.5335
X3.75Y-2.25
X3.75Y-2.5335
T6
X3.25Y-2.1
X6.35Y-2.1
X5.525Y-2.775
X4.075Y-2.775
X3.25Y-3.25
X6.35Y-3.25
T5
G00X4.6Y-2.0606
M15
G01X4.6Y-2.1394
M16
G05
G00X5.0Y-2.0606
M15
G01X5.0Y-2.1394
M16
G05
T0
M30
