M48
; DRILL file {KiCad (5.1.2)-1} date 07/05/2019 15:57:02
; FORMAT={-:-/ absolute / inch / decimal}
; #@! TF.CreationDate,2019-05-07T15:57:02+02:00
; #@! TF.GenerationSoftware,Kicad,Pcbnew,(5.1.2)-1
FMAT,2
INCH
T1C0.0394
T2C0.0669
T3C0.0787
T4C0.1732
T5C0.1260
%
G90
G05
T1
X3.9Y-3.1
X3.9984Y-3.1
X4.0969Y-3.1
X4.1953Y-3.1
X5.4047Y-3.1
X5.5031Y-3.1
X5.6016Y-3.1
X5.7Y-3.1
X4.5Y-3.2
X4.6Y-3.2
X4.7Y-3.2
X4.8Y-3.2
X4.9Y-3.2
X5.0Y-3.2
X5.1Y-3.2
T2
X5.7Y-2.6031
X5.7Y-2.8
X3.9Y-2.6031
X3.9Y-2.8
T3
X4.65Y-2.45
X4.95Y-2.45
T4
X5.35Y-2.45
X5.35Y-2.7335
X4.25Y-2.45
X4.25Y-2.7335
T5
X3.6Y-3.25
X6.0Y-3.25
X3.6Y-2.3
X6.0Y-2.3
X4.8Y-2.775
T0
M30
