G04 #@! TF.GenerationSoftware,KiCad,Pcbnew,(5.1.2)-1*
G04 #@! TF.CreationDate,2019-05-06T14:38:35+02:00*
G04 #@! TF.ProjectId,Balance_Adapter_Board_For_2_3s_Lipos,42616c61-6e63-4655-9f41-646170746572,rev?*
G04 #@! TF.SameCoordinates,Original*
G04 #@! TF.FileFunction,Copper,L2,Bot*
G04 #@! TF.FilePolarity,Positive*
%FSLAX46Y46*%
G04 Gerber Fmt 4.6, Leading zero omitted, Abs format (unit mm)*
G04 Created by KiCad (PCBNEW (5.1.2)-1) date 2019-05-06 14:38:35*
%MOMM*%
%LPD*%
G04 APERTURE LIST*
%ADD10C,1.750000*%
%ADD11R,1.750000X1.750000*%
%ADD12O,1.700000X1.700000*%
%ADD13R,1.700000X1.700000*%
%ADD14R,5.000000X5.000000*%
%ADD15C,5.000000*%
%ADD16C,3.000000*%
%ADD17C,6.000000*%
%ADD18C,1.000000*%
%ADD19C,0.350000*%
%ADD20C,2.000000*%
G04 APERTURE END LIST*
D10*
X129540000Y-87630000D03*
X129540000Y-85130000D03*
X129540000Y-82630000D03*
D11*
X129540000Y-80130000D03*
X109220000Y-87630000D03*
D10*
X109220000Y-85130000D03*
X109220000Y-82630000D03*
X109220000Y-80130000D03*
D12*
X127000000Y-93980000D03*
X124460000Y-93980000D03*
X121920000Y-93980000D03*
X119380000Y-93980000D03*
X116840000Y-93980000D03*
X114300000Y-93980000D03*
D13*
X111760000Y-93980000D03*
D14*
X115570000Y-101600000D03*
D15*
X123190000Y-101600000D03*
D16*
X128270000Y-72390000D03*
X133270000Y-72390000D03*
X110490000Y-72390000D03*
X105490000Y-72390000D03*
D17*
X126150000Y-63500000D03*
X133350000Y-63500000D03*
X112610000Y-63500000D03*
X105410000Y-63500000D03*
D18*
X105410000Y-72390000D02*
X105410000Y-86360000D01*
D19*
X109220000Y-87630000D02*
X105410000Y-87630000D01*
D18*
X105410000Y-86360000D02*
X105410000Y-87630000D01*
X105410000Y-87630000D02*
X105410000Y-93980000D01*
X105410000Y-95250000D02*
X105410000Y-93980000D01*
D20*
X105410000Y-74511320D02*
X105410000Y-95250000D01*
X105410000Y-72390000D02*
X105410000Y-74511320D01*
X111760000Y-101600000D02*
X105410000Y-95250000D01*
X115570000Y-101600000D02*
X111760000Y-101600000D01*
D19*
X111760000Y-93980000D02*
X111760000Y-90170000D01*
X111760000Y-90170000D02*
X109220000Y-87630000D01*
D20*
X105410000Y-63500000D02*
X105410000Y-72390000D01*
D19*
X114300000Y-90210000D02*
X109220000Y-85130000D01*
X114300000Y-93980000D02*
X114300000Y-90210000D01*
X116840000Y-90250000D02*
X109220000Y-82630000D01*
X116840000Y-93980000D02*
X116840000Y-90250000D01*
X109340000Y-80130000D02*
X109220000Y-80130000D01*
X129025000Y-80645000D02*
X129540000Y-80130000D01*
X128905000Y-80645000D02*
X129025000Y-80645000D01*
X109735000Y-80645000D02*
X109220000Y-80130000D01*
X109855000Y-80645000D02*
X109735000Y-80645000D01*
D20*
X112610000Y-63500000D02*
X117690000Y-68580000D01*
X121070000Y-68580000D02*
X126150000Y-63500000D01*
X113880000Y-72390000D02*
X117690000Y-68580000D01*
X110490000Y-72390000D02*
X113880000Y-72390000D01*
X124880000Y-72390000D02*
X121070000Y-68580000D01*
X128270000Y-72390000D02*
X124880000Y-72390000D01*
D19*
X119380000Y-68580000D02*
X119380000Y-72390000D01*
D20*
X119380000Y-68580000D02*
X121070000Y-68580000D01*
X117690000Y-68580000D02*
X119380000Y-68580000D01*
D19*
X119380000Y-72390000D02*
X113030000Y-78740000D01*
X125730000Y-78740000D02*
X120650000Y-73660000D01*
X110610000Y-78740000D02*
X109220000Y-80130000D01*
X113030000Y-78740000D02*
X110610000Y-78740000D01*
X129540000Y-80010000D02*
X129540000Y-80130000D01*
X125730000Y-78740000D02*
X128270000Y-78740000D01*
X128270000Y-78740000D02*
X129540000Y-80010000D01*
X119380000Y-85090000D02*
X119507000Y-84963000D01*
X113030000Y-78740000D02*
X119380000Y-85090000D01*
X119507000Y-84963000D02*
X125730000Y-78740000D01*
X119380000Y-85090000D02*
X119380000Y-93980000D01*
X120650000Y-73660000D02*
X119380000Y-72390000D01*
X121920000Y-90250000D02*
X129540000Y-82630000D01*
X121920000Y-93980000D02*
X121920000Y-90250000D01*
X124460000Y-90210000D02*
X129540000Y-85130000D01*
X124460000Y-93980000D02*
X124460000Y-90210000D01*
D18*
X133350000Y-72390000D02*
X133350000Y-86360000D01*
D19*
X129540000Y-87630000D02*
X133350000Y-87630000D01*
D18*
X133350000Y-86360000D02*
X133350000Y-87630000D01*
X133350000Y-87630000D02*
X133350000Y-93980000D01*
X133350000Y-95250000D02*
X133350000Y-93980000D01*
D20*
X133350000Y-95940000D02*
X133350000Y-95250000D01*
X127690000Y-101600000D02*
X133350000Y-95940000D01*
X123190000Y-101600000D02*
X127690000Y-101600000D01*
X133350000Y-95940000D02*
X133350000Y-72390000D01*
X133350000Y-72390000D02*
X133350000Y-63500000D01*
D19*
X127000000Y-90170000D02*
X129540000Y-87630000D01*
X127000000Y-93980000D02*
X127000000Y-90170000D01*
M02*
