G04 #@! TF.GenerationSoftware,KiCad,Pcbnew,(5.1.2)-1*
G04 #@! TF.CreationDate,2019-05-07T15:40:18+02:00*
G04 #@! TF.ProjectId,Balance_Adapter_Board_For_2_3s_Lipos,42616c61-6e63-4655-9f41-646170746572,rev?*
G04 #@! TF.SameCoordinates,Original*
G04 #@! TF.FileFunction,Drawing*
%FSLAX46Y46*%
G04 Gerber Fmt 4.6, Leading zero omitted, Abs format (unit mm)*
G04 Created by KiCad (PCBNEW (5.1.2)-1) date 2019-05-07 15:40:18*
%MOMM*%
%LPD*%
G04 APERTURE LIST*
%ADD10C,0.300000*%
%ADD11C,1.250000*%
G04 APERTURE END LIST*
D10*
X146953333Y-83688333D02*
X146686666Y-83688333D01*
X146553333Y-83755000D01*
X146420000Y-83888333D01*
X146353333Y-84155000D01*
X146353333Y-84621666D01*
X146420000Y-84888333D01*
X146553333Y-85021666D01*
X146686666Y-85088333D01*
X146953333Y-85088333D01*
X147086666Y-85021666D01*
X147220000Y-84888333D01*
X147286666Y-84621666D01*
X147286666Y-84155000D01*
X147220000Y-83888333D01*
X147086666Y-83755000D01*
X146953333Y-83688333D01*
X145753333Y-84155000D02*
X145753333Y-85088333D01*
X145753333Y-84288333D02*
X145686666Y-84221666D01*
X145553333Y-84155000D01*
X145353333Y-84155000D01*
X145220000Y-84221666D01*
X145153333Y-84355000D01*
X145153333Y-85088333D01*
X144286666Y-85088333D02*
X144420000Y-85021666D01*
X144486666Y-84888333D01*
X144486666Y-83688333D01*
X143886666Y-84155000D02*
X143553333Y-85088333D01*
X143220000Y-84155000D02*
X143553333Y-85088333D01*
X143686666Y-85421666D01*
X143753333Y-85488333D01*
X143886666Y-85555000D01*
X141020000Y-84155000D02*
X141020000Y-85088333D01*
X141620000Y-84155000D02*
X141620000Y-84888333D01*
X141553333Y-85021666D01*
X141420000Y-85088333D01*
X141220000Y-85088333D01*
X141086666Y-85021666D01*
X141020000Y-84955000D01*
X140420000Y-85021666D02*
X140286666Y-85088333D01*
X140020000Y-85088333D01*
X139886666Y-85021666D01*
X139820000Y-84888333D01*
X139820000Y-84821666D01*
X139886666Y-84688333D01*
X140020000Y-84621666D01*
X140220000Y-84621666D01*
X140353333Y-84555000D01*
X140420000Y-84421666D01*
X140420000Y-84355000D01*
X140353333Y-84221666D01*
X140220000Y-84155000D01*
X140020000Y-84155000D01*
X139886666Y-84221666D01*
X138686666Y-85021666D02*
X138820000Y-85088333D01*
X139086666Y-85088333D01*
X139220000Y-85021666D01*
X139286666Y-84888333D01*
X139286666Y-84355000D01*
X139220000Y-84221666D01*
X139086666Y-84155000D01*
X138820000Y-84155000D01*
X138686666Y-84221666D01*
X138620000Y-84355000D01*
X138620000Y-84488333D01*
X139286666Y-84621666D01*
X136953333Y-85088333D02*
X136953333Y-84155000D01*
X136953333Y-83688333D02*
X137020000Y-83755000D01*
X136953333Y-83821666D01*
X136886666Y-83755000D01*
X136953333Y-83688333D01*
X136953333Y-83821666D01*
X136486666Y-84155000D02*
X135953333Y-84155000D01*
X136286666Y-83688333D02*
X136286666Y-84888333D01*
X136220000Y-85021666D01*
X136086666Y-85088333D01*
X135953333Y-85088333D01*
X134553333Y-84155000D02*
X134286666Y-85088333D01*
X134020000Y-84421666D01*
X133753333Y-85088333D01*
X133486666Y-84155000D01*
X132953333Y-85088333D02*
X132953333Y-83688333D01*
X132353333Y-85088333D02*
X132353333Y-84355000D01*
X132420000Y-84221666D01*
X132553333Y-84155000D01*
X132753333Y-84155000D01*
X132886666Y-84221666D01*
X132953333Y-84288333D01*
X131153333Y-85021666D02*
X131286666Y-85088333D01*
X131553333Y-85088333D01*
X131686666Y-85021666D01*
X131753333Y-84888333D01*
X131753333Y-84355000D01*
X131686666Y-84221666D01*
X131553333Y-84155000D01*
X131286666Y-84155000D01*
X131153333Y-84221666D01*
X131086666Y-84355000D01*
X131086666Y-84488333D01*
X131753333Y-84621666D01*
X130486666Y-84155000D02*
X130486666Y-85088333D01*
X130486666Y-84288333D02*
X130420000Y-84221666D01*
X130286666Y-84155000D01*
X130086666Y-84155000D01*
X129953333Y-84221666D01*
X129886666Y-84355000D01*
X129886666Y-85088333D01*
X128286666Y-84155000D02*
X127953333Y-85088333D01*
X127620000Y-84155000D02*
X127953333Y-85088333D01*
X128086666Y-85421666D01*
X128153333Y-85488333D01*
X128286666Y-85555000D01*
X126886666Y-85088333D02*
X127020000Y-85021666D01*
X127086666Y-84955000D01*
X127153333Y-84821666D01*
X127153333Y-84421666D01*
X127086666Y-84288333D01*
X127020000Y-84221666D01*
X126886666Y-84155000D01*
X126686666Y-84155000D01*
X126553333Y-84221666D01*
X126486666Y-84288333D01*
X126420000Y-84421666D01*
X126420000Y-84821666D01*
X126486666Y-84955000D01*
X126553333Y-85021666D01*
X126686666Y-85088333D01*
X126886666Y-85088333D01*
X125220000Y-84155000D02*
X125220000Y-85088333D01*
X125820000Y-84155000D02*
X125820000Y-84888333D01*
X125753333Y-85021666D01*
X125620000Y-85088333D01*
X125420000Y-85088333D01*
X125286666Y-85021666D01*
X125220000Y-84955000D01*
X123486666Y-85088333D02*
X123486666Y-83688333D01*
X123353333Y-84555000D02*
X122953333Y-85088333D01*
X122953333Y-84155000D02*
X123486666Y-84688333D01*
X122353333Y-84155000D02*
X122353333Y-85088333D01*
X122353333Y-84288333D02*
X122286666Y-84221666D01*
X122153333Y-84155000D01*
X121953333Y-84155000D01*
X121820000Y-84221666D01*
X121753333Y-84355000D01*
X121753333Y-85088333D01*
X120886666Y-85088333D02*
X121020000Y-85021666D01*
X121086666Y-84955000D01*
X121153333Y-84821666D01*
X121153333Y-84421666D01*
X121086666Y-84288333D01*
X121020000Y-84221666D01*
X120886666Y-84155000D01*
X120686666Y-84155000D01*
X120553333Y-84221666D01*
X120486666Y-84288333D01*
X120420000Y-84421666D01*
X120420000Y-84821666D01*
X120486666Y-84955000D01*
X120553333Y-85021666D01*
X120686666Y-85088333D01*
X120886666Y-85088333D01*
X119953333Y-84155000D02*
X119686666Y-85088333D01*
X119420000Y-84421666D01*
X119153333Y-85088333D01*
X118886666Y-84155000D01*
X117420000Y-84155000D02*
X117153333Y-85088333D01*
X116886666Y-84421666D01*
X116620000Y-85088333D01*
X116353333Y-84155000D01*
X115820000Y-85088333D02*
X115820000Y-83688333D01*
X115220000Y-85088333D02*
X115220000Y-84355000D01*
X115286666Y-84221666D01*
X115420000Y-84155000D01*
X115620000Y-84155000D01*
X115753333Y-84221666D01*
X115820000Y-84288333D01*
X113953333Y-85088333D02*
X113953333Y-84355000D01*
X114020000Y-84221666D01*
X114153333Y-84155000D01*
X114420000Y-84155000D01*
X114553333Y-84221666D01*
X113953333Y-85021666D02*
X114086666Y-85088333D01*
X114420000Y-85088333D01*
X114553333Y-85021666D01*
X114620000Y-84888333D01*
X114620000Y-84755000D01*
X114553333Y-84621666D01*
X114420000Y-84555000D01*
X114086666Y-84555000D01*
X113953333Y-84488333D01*
X113486666Y-84155000D02*
X112953333Y-84155000D01*
X113286666Y-83688333D02*
X113286666Y-84888333D01*
X113220000Y-85021666D01*
X113086666Y-85088333D01*
X112953333Y-85088333D01*
X111553333Y-84155000D02*
X111220000Y-85088333D01*
X110886666Y-84155000D02*
X111220000Y-85088333D01*
X111353333Y-85421666D01*
X111420000Y-85488333D01*
X111553333Y-85555000D01*
X110153333Y-85088333D02*
X110286666Y-85021666D01*
X110353333Y-84955000D01*
X110420000Y-84821666D01*
X110420000Y-84421666D01*
X110353333Y-84288333D01*
X110286666Y-84221666D01*
X110153333Y-84155000D01*
X109953333Y-84155000D01*
X109820000Y-84221666D01*
X109753333Y-84288333D01*
X109686666Y-84421666D01*
X109686666Y-84821666D01*
X109753333Y-84955000D01*
X109820000Y-85021666D01*
X109953333Y-85088333D01*
X110153333Y-85088333D01*
X108486666Y-84155000D02*
X108486666Y-85088333D01*
X109086666Y-84155000D02*
X109086666Y-84888333D01*
X109020000Y-85021666D01*
X108886666Y-85088333D01*
X108686666Y-85088333D01*
X108553333Y-85021666D01*
X108486666Y-84955000D01*
X106153333Y-85088333D02*
X106153333Y-84355000D01*
X106220000Y-84221666D01*
X106353333Y-84155000D01*
X106620000Y-84155000D01*
X106753333Y-84221666D01*
X106153333Y-85021666D02*
X106286666Y-85088333D01*
X106620000Y-85088333D01*
X106753333Y-85021666D01*
X106820000Y-84888333D01*
X106820000Y-84755000D01*
X106753333Y-84621666D01*
X106620000Y-84555000D01*
X106286666Y-84555000D01*
X106153333Y-84488333D01*
X105486666Y-85088333D02*
X105486666Y-84155000D01*
X105486666Y-84421666D02*
X105420000Y-84288333D01*
X105353333Y-84221666D01*
X105220000Y-84155000D01*
X105086666Y-84155000D01*
X104086666Y-85021666D02*
X104220000Y-85088333D01*
X104486666Y-85088333D01*
X104620000Y-85021666D01*
X104686666Y-84888333D01*
X104686666Y-84355000D01*
X104620000Y-84221666D01*
X104486666Y-84155000D01*
X104220000Y-84155000D01*
X104086666Y-84221666D01*
X104020000Y-84355000D01*
X104020000Y-84488333D01*
X104686666Y-84621666D01*
X101753333Y-85088333D02*
X101753333Y-83688333D01*
X101753333Y-85021666D02*
X101886666Y-85088333D01*
X102153333Y-85088333D01*
X102286666Y-85021666D01*
X102353333Y-84955000D01*
X102420000Y-84821666D01*
X102420000Y-84421666D01*
X102353333Y-84288333D01*
X102286666Y-84221666D01*
X102153333Y-84155000D01*
X101886666Y-84155000D01*
X101753333Y-84221666D01*
X100886666Y-85088333D02*
X101020000Y-85021666D01*
X101086666Y-84955000D01*
X101153333Y-84821666D01*
X101153333Y-84421666D01*
X101086666Y-84288333D01*
X101020000Y-84221666D01*
X100886666Y-84155000D01*
X100686666Y-84155000D01*
X100553333Y-84221666D01*
X100486666Y-84288333D01*
X100420000Y-84421666D01*
X100420000Y-84821666D01*
X100486666Y-84955000D01*
X100553333Y-85021666D01*
X100686666Y-85088333D01*
X100886666Y-85088333D01*
X99820000Y-85088333D02*
X99820000Y-84155000D01*
X99820000Y-83688333D02*
X99886666Y-83755000D01*
X99820000Y-83821666D01*
X99753333Y-83755000D01*
X99820000Y-83688333D01*
X99820000Y-83821666D01*
X99153333Y-84155000D02*
X99153333Y-85088333D01*
X99153333Y-84288333D02*
X99086666Y-84221666D01*
X98953333Y-84155000D01*
X98753333Y-84155000D01*
X98620000Y-84221666D01*
X98553333Y-84355000D01*
X98553333Y-85088333D01*
X97286666Y-84155000D02*
X97286666Y-85288333D01*
X97353333Y-85421666D01*
X97420000Y-85488333D01*
X97553333Y-85555000D01*
X97753333Y-85555000D01*
X97886666Y-85488333D01*
X97286666Y-85021666D02*
X97420000Y-85088333D01*
X97686666Y-85088333D01*
X97820000Y-85021666D01*
X97886666Y-84955000D01*
X97953333Y-84821666D01*
X97953333Y-84421666D01*
X97886666Y-84288333D01*
X97820000Y-84221666D01*
X97686666Y-84155000D01*
X97420000Y-84155000D01*
X97286666Y-84221666D01*
X96620000Y-84955000D02*
X96553333Y-85021666D01*
X96620000Y-85088333D01*
X96686666Y-85021666D01*
X96620000Y-84955000D01*
X96620000Y-85088333D01*
X96620000Y-84555000D02*
X96686666Y-83755000D01*
X96620000Y-83688333D01*
X96553333Y-83755000D01*
X96620000Y-84555000D01*
X96620000Y-83688333D01*
D11*
X153828571Y-68223095D02*
X153590476Y-67985000D01*
X153114285Y-67746904D01*
X151923809Y-67746904D01*
X151447619Y-67985000D01*
X151209523Y-68223095D01*
X150971428Y-68699285D01*
X150971428Y-69175476D01*
X151209523Y-69889761D01*
X154066666Y-72746904D01*
X150971428Y-72746904D01*
X90011428Y-72746904D02*
X92868571Y-72746904D01*
X91440000Y-72746904D02*
X91440000Y-67746904D01*
X91916190Y-68461190D01*
X92392380Y-68937380D01*
X92868571Y-69175476D01*
D10*
X142955714Y-56407857D02*
X142741428Y-56479285D01*
X142670000Y-56550714D01*
X142598571Y-56693571D01*
X142598571Y-56907857D01*
X142670000Y-57050714D01*
X142741428Y-57122142D01*
X142884285Y-57193571D01*
X143455714Y-57193571D01*
X143455714Y-55693571D01*
X142955714Y-55693571D01*
X142812857Y-55765000D01*
X142741428Y-55836428D01*
X142670000Y-55979285D01*
X142670000Y-56122142D01*
X142741428Y-56265000D01*
X142812857Y-56336428D01*
X142955714Y-56407857D01*
X143455714Y-56407857D01*
X141312857Y-57193571D02*
X141312857Y-56407857D01*
X141384285Y-56265000D01*
X141527142Y-56193571D01*
X141812857Y-56193571D01*
X141955714Y-56265000D01*
X141312857Y-57122142D02*
X141455714Y-57193571D01*
X141812857Y-57193571D01*
X141955714Y-57122142D01*
X142027142Y-56979285D01*
X142027142Y-56836428D01*
X141955714Y-56693571D01*
X141812857Y-56622142D01*
X141455714Y-56622142D01*
X141312857Y-56550714D01*
X140384285Y-57193571D02*
X140527142Y-57122142D01*
X140598571Y-56979285D01*
X140598571Y-55693571D01*
X139170000Y-57193571D02*
X139170000Y-56407857D01*
X139241428Y-56265000D01*
X139384285Y-56193571D01*
X139670000Y-56193571D01*
X139812857Y-56265000D01*
X139170000Y-57122142D02*
X139312857Y-57193571D01*
X139670000Y-57193571D01*
X139812857Y-57122142D01*
X139884285Y-56979285D01*
X139884285Y-56836428D01*
X139812857Y-56693571D01*
X139670000Y-56622142D01*
X139312857Y-56622142D01*
X139170000Y-56550714D01*
X138455714Y-56193571D02*
X138455714Y-57193571D01*
X138455714Y-56336428D02*
X138384285Y-56265000D01*
X138241428Y-56193571D01*
X138027142Y-56193571D01*
X137884285Y-56265000D01*
X137812857Y-56407857D01*
X137812857Y-57193571D01*
X136455714Y-57122142D02*
X136598571Y-57193571D01*
X136884285Y-57193571D01*
X137027142Y-57122142D01*
X137098571Y-57050714D01*
X137170000Y-56907857D01*
X137170000Y-56479285D01*
X137098571Y-56336428D01*
X137027142Y-56265000D01*
X136884285Y-56193571D01*
X136598571Y-56193571D01*
X136455714Y-56265000D01*
X135241428Y-57122142D02*
X135384285Y-57193571D01*
X135670000Y-57193571D01*
X135812857Y-57122142D01*
X135884285Y-56979285D01*
X135884285Y-56407857D01*
X135812857Y-56265000D01*
X135670000Y-56193571D01*
X135384285Y-56193571D01*
X135241428Y-56265000D01*
X135170000Y-56407857D01*
X135170000Y-56550714D01*
X135884285Y-56693571D01*
X133455714Y-56765000D02*
X132741428Y-56765000D01*
X133598571Y-57193571D02*
X133098571Y-55693571D01*
X132598571Y-57193571D01*
X131455714Y-57193571D02*
X131455714Y-55693571D01*
X131455714Y-57122142D02*
X131598571Y-57193571D01*
X131884285Y-57193571D01*
X132027142Y-57122142D01*
X132098571Y-57050714D01*
X132170000Y-56907857D01*
X132170000Y-56479285D01*
X132098571Y-56336428D01*
X132027142Y-56265000D01*
X131884285Y-56193571D01*
X131598571Y-56193571D01*
X131455714Y-56265000D01*
X130098571Y-57193571D02*
X130098571Y-56407857D01*
X130170000Y-56265000D01*
X130312857Y-56193571D01*
X130598571Y-56193571D01*
X130741428Y-56265000D01*
X130098571Y-57122142D02*
X130241428Y-57193571D01*
X130598571Y-57193571D01*
X130741428Y-57122142D01*
X130812857Y-56979285D01*
X130812857Y-56836428D01*
X130741428Y-56693571D01*
X130598571Y-56622142D01*
X130241428Y-56622142D01*
X130098571Y-56550714D01*
X129384285Y-56193571D02*
X129384285Y-57693571D01*
X129384285Y-56265000D02*
X129241428Y-56193571D01*
X128955714Y-56193571D01*
X128812857Y-56265000D01*
X128741428Y-56336428D01*
X128670000Y-56479285D01*
X128670000Y-56907857D01*
X128741428Y-57050714D01*
X128812857Y-57122142D01*
X128955714Y-57193571D01*
X129241428Y-57193571D01*
X129384285Y-57122142D01*
X128241428Y-56193571D02*
X127670000Y-56193571D01*
X128027142Y-55693571D02*
X128027142Y-56979285D01*
X127955714Y-57122142D01*
X127812857Y-57193571D01*
X127670000Y-57193571D01*
X126598571Y-57122142D02*
X126741428Y-57193571D01*
X127027142Y-57193571D01*
X127170000Y-57122142D01*
X127241428Y-56979285D01*
X127241428Y-56407857D01*
X127170000Y-56265000D01*
X127027142Y-56193571D01*
X126741428Y-56193571D01*
X126598571Y-56265000D01*
X126527142Y-56407857D01*
X126527142Y-56550714D01*
X127241428Y-56693571D01*
X125884285Y-57193571D02*
X125884285Y-56193571D01*
X125884285Y-56479285D02*
X125812857Y-56336428D01*
X125741428Y-56265000D01*
X125598571Y-56193571D01*
X125455714Y-56193571D01*
X123312857Y-56407857D02*
X123098571Y-56479285D01*
X123027142Y-56550714D01*
X122955714Y-56693571D01*
X122955714Y-56907857D01*
X123027142Y-57050714D01*
X123098571Y-57122142D01*
X123241428Y-57193571D01*
X123812857Y-57193571D01*
X123812857Y-55693571D01*
X123312857Y-55693571D01*
X123170000Y-55765000D01*
X123098571Y-55836428D01*
X123027142Y-55979285D01*
X123027142Y-56122142D01*
X123098571Y-56265000D01*
X123170000Y-56336428D01*
X123312857Y-56407857D01*
X123812857Y-56407857D01*
X122098571Y-57193571D02*
X122241428Y-57122142D01*
X122312857Y-57050714D01*
X122384285Y-56907857D01*
X122384285Y-56479285D01*
X122312857Y-56336428D01*
X122241428Y-56265000D01*
X122098571Y-56193571D01*
X121884285Y-56193571D01*
X121741428Y-56265000D01*
X121670000Y-56336428D01*
X121598571Y-56479285D01*
X121598571Y-56907857D01*
X121670000Y-57050714D01*
X121741428Y-57122142D01*
X121884285Y-57193571D01*
X122098571Y-57193571D01*
X120312857Y-57193571D02*
X120312857Y-56407857D01*
X120384285Y-56265000D01*
X120527142Y-56193571D01*
X120812857Y-56193571D01*
X120955714Y-56265000D01*
X120312857Y-57122142D02*
X120455714Y-57193571D01*
X120812857Y-57193571D01*
X120955714Y-57122142D01*
X121027142Y-56979285D01*
X121027142Y-56836428D01*
X120955714Y-56693571D01*
X120812857Y-56622142D01*
X120455714Y-56622142D01*
X120312857Y-56550714D01*
X119598571Y-57193571D02*
X119598571Y-56193571D01*
X119598571Y-56479285D02*
X119527142Y-56336428D01*
X119455714Y-56265000D01*
X119312857Y-56193571D01*
X119170000Y-56193571D01*
X118027142Y-57193571D02*
X118027142Y-55693571D01*
X118027142Y-57122142D02*
X118170000Y-57193571D01*
X118455714Y-57193571D01*
X118598571Y-57122142D01*
X118670000Y-57050714D01*
X118741428Y-56907857D01*
X118741428Y-56479285D01*
X118670000Y-56336428D01*
X118598571Y-56265000D01*
X118455714Y-56193571D01*
X118170000Y-56193571D01*
X118027142Y-56265000D01*
X116384285Y-56193571D02*
X115812857Y-56193571D01*
X116170000Y-57193571D02*
X116170000Y-55907857D01*
X116098571Y-55765000D01*
X115955714Y-55693571D01*
X115812857Y-55693571D01*
X115098571Y-57193571D02*
X115241428Y-57122142D01*
X115312857Y-57050714D01*
X115384285Y-56907857D01*
X115384285Y-56479285D01*
X115312857Y-56336428D01*
X115241428Y-56265000D01*
X115098571Y-56193571D01*
X114884285Y-56193571D01*
X114741428Y-56265000D01*
X114670000Y-56336428D01*
X114598571Y-56479285D01*
X114598571Y-56907857D01*
X114670000Y-57050714D01*
X114741428Y-57122142D01*
X114884285Y-57193571D01*
X115098571Y-57193571D01*
X113955714Y-57193571D02*
X113955714Y-56193571D01*
X113955714Y-56479285D02*
X113884285Y-56336428D01*
X113812857Y-56265000D01*
X113670000Y-56193571D01*
X113527142Y-56193571D01*
X111955714Y-55836428D02*
X111884285Y-55765000D01*
X111741428Y-55693571D01*
X111384285Y-55693571D01*
X111241428Y-55765000D01*
X111170000Y-55836428D01*
X111098571Y-55979285D01*
X111098571Y-56122142D01*
X111170000Y-56336428D01*
X112027142Y-57193571D01*
X111098571Y-57193571D01*
X109455714Y-55693571D02*
X108527142Y-55693571D01*
X109027142Y-56265000D01*
X108812857Y-56265000D01*
X108670000Y-56336428D01*
X108598571Y-56407857D01*
X108527142Y-56550714D01*
X108527142Y-56907857D01*
X108598571Y-57050714D01*
X108670000Y-57122142D01*
X108812857Y-57193571D01*
X109241428Y-57193571D01*
X109384285Y-57122142D01*
X109455714Y-57050714D01*
X107955714Y-57122142D02*
X107812857Y-57193571D01*
X107527142Y-57193571D01*
X107384285Y-57122142D01*
X107312857Y-56979285D01*
X107312857Y-56907857D01*
X107384285Y-56765000D01*
X107527142Y-56693571D01*
X107741428Y-56693571D01*
X107884285Y-56622142D01*
X107955714Y-56479285D01*
X107955714Y-56407857D01*
X107884285Y-56265000D01*
X107741428Y-56193571D01*
X107527142Y-56193571D01*
X107384285Y-56265000D01*
X104812857Y-57193571D02*
X105527142Y-57193571D01*
X105527142Y-55693571D01*
X104312857Y-57193571D02*
X104312857Y-56193571D01*
X104312857Y-55693571D02*
X104384285Y-55765000D01*
X104312857Y-55836428D01*
X104241428Y-55765000D01*
X104312857Y-55693571D01*
X104312857Y-55836428D01*
X103598571Y-56193571D02*
X103598571Y-57693571D01*
X103598571Y-56265000D02*
X103455714Y-56193571D01*
X103170000Y-56193571D01*
X103027142Y-56265000D01*
X102955714Y-56336428D01*
X102884285Y-56479285D01*
X102884285Y-56907857D01*
X102955714Y-57050714D01*
X103027142Y-57122142D01*
X103170000Y-57193571D01*
X103455714Y-57193571D01*
X103598571Y-57122142D01*
X102027142Y-57193571D02*
X102170000Y-57122142D01*
X102241428Y-57050714D01*
X102312857Y-56907857D01*
X102312857Y-56479285D01*
X102241428Y-56336428D01*
X102170000Y-56265000D01*
X102027142Y-56193571D01*
X101812857Y-56193571D01*
X101670000Y-56265000D01*
X101598571Y-56336428D01*
X101527142Y-56479285D01*
X101527142Y-56907857D01*
X101598571Y-57050714D01*
X101670000Y-57122142D01*
X101812857Y-57193571D01*
X102027142Y-57193571D01*
X100955714Y-57122142D02*
X100812857Y-57193571D01*
X100527142Y-57193571D01*
X100384285Y-57122142D01*
X100312857Y-56979285D01*
X100312857Y-56907857D01*
X100384285Y-56765000D01*
X100527142Y-56693571D01*
X100741428Y-56693571D01*
X100884285Y-56622142D01*
X100955714Y-56479285D01*
X100955714Y-56407857D01*
X100884285Y-56265000D01*
X100741428Y-56193571D01*
X100527142Y-56193571D01*
X100384285Y-56265000D01*
M02*
