G04 #@! TF.GenerationSoftware,KiCad,Pcbnew,(5.1.2)-1*
G04 #@! TF.CreationDate,2019-05-06T14:38:35+02:00*
G04 #@! TF.ProjectId,Balance_Adapter_Board_For_2_3s_Lipos,42616c61-6e63-4655-9f41-646170746572,rev?*
G04 #@! TF.SameCoordinates,Original*
G04 #@! TF.FileFunction,Drawing*
%FSLAX46Y46*%
G04 Gerber Fmt 4.6, Leading zero omitted, Abs format (unit mm)*
G04 Created by KiCad (PCBNEW (5.1.2)-1) date 2019-05-06 14:38:35*
%MOMM*%
%LPD*%
G04 APERTURE LIST*
%ADD10C,0.300000*%
G04 APERTURE END LIST*
D10*
X100758571Y-83141428D02*
X100687142Y-83070000D01*
X100544285Y-82998571D01*
X100187142Y-82998571D01*
X100044285Y-83070000D01*
X99972857Y-83141428D01*
X99901428Y-83284285D01*
X99901428Y-83427142D01*
X99972857Y-83641428D01*
X100830000Y-84498571D01*
X99901428Y-84498571D01*
X100758571Y-71711428D02*
X100687142Y-71640000D01*
X100544285Y-71568571D01*
X100187142Y-71568571D01*
X100044285Y-71640000D01*
X99972857Y-71711428D01*
X99901428Y-71854285D01*
X99901428Y-71997142D01*
X99972857Y-72211428D01*
X100830000Y-73068571D01*
X99901428Y-73068571D01*
X100758571Y-62821428D02*
X100687142Y-62750000D01*
X100544285Y-62678571D01*
X100187142Y-62678571D01*
X100044285Y-62750000D01*
X99972857Y-62821428D01*
X99901428Y-62964285D01*
X99901428Y-63107142D01*
X99972857Y-63321428D01*
X100830000Y-64178571D01*
X99901428Y-64178571D01*
X138001428Y-84498571D02*
X138858571Y-84498571D01*
X138430000Y-84498571D02*
X138430000Y-82998571D01*
X138572857Y-83212857D01*
X138715714Y-83355714D01*
X138858571Y-83427142D01*
X138001428Y-73068571D02*
X138858571Y-73068571D01*
X138430000Y-73068571D02*
X138430000Y-71568571D01*
X138572857Y-71782857D01*
X138715714Y-71925714D01*
X138858571Y-71997142D01*
X138001428Y-64178571D02*
X138858571Y-64178571D01*
X138430000Y-64178571D02*
X138430000Y-62678571D01*
X138572857Y-62892857D01*
X138715714Y-63035714D01*
X138858571Y-63107142D01*
X131594285Y-53100857D02*
X131380000Y-53172285D01*
X131308571Y-53243714D01*
X131237142Y-53386571D01*
X131237142Y-53600857D01*
X131308571Y-53743714D01*
X131380000Y-53815142D01*
X131522857Y-53886571D01*
X132094285Y-53886571D01*
X132094285Y-52386571D01*
X131594285Y-52386571D01*
X131451428Y-52458000D01*
X131380000Y-52529428D01*
X131308571Y-52672285D01*
X131308571Y-52815142D01*
X131380000Y-52958000D01*
X131451428Y-53029428D01*
X131594285Y-53100857D01*
X132094285Y-53100857D01*
X129951428Y-53886571D02*
X129951428Y-53100857D01*
X130022857Y-52958000D01*
X130165714Y-52886571D01*
X130451428Y-52886571D01*
X130594285Y-52958000D01*
X129951428Y-53815142D02*
X130094285Y-53886571D01*
X130451428Y-53886571D01*
X130594285Y-53815142D01*
X130665714Y-53672285D01*
X130665714Y-53529428D01*
X130594285Y-53386571D01*
X130451428Y-53315142D01*
X130094285Y-53315142D01*
X129951428Y-53243714D01*
X129022857Y-53886571D02*
X129165714Y-53815142D01*
X129237142Y-53672285D01*
X129237142Y-52386571D01*
X127808571Y-53886571D02*
X127808571Y-53100857D01*
X127880000Y-52958000D01*
X128022857Y-52886571D01*
X128308571Y-52886571D01*
X128451428Y-52958000D01*
X127808571Y-53815142D02*
X127951428Y-53886571D01*
X128308571Y-53886571D01*
X128451428Y-53815142D01*
X128522857Y-53672285D01*
X128522857Y-53529428D01*
X128451428Y-53386571D01*
X128308571Y-53315142D01*
X127951428Y-53315142D01*
X127808571Y-53243714D01*
X127094285Y-52886571D02*
X127094285Y-53886571D01*
X127094285Y-53029428D02*
X127022857Y-52958000D01*
X126880000Y-52886571D01*
X126665714Y-52886571D01*
X126522857Y-52958000D01*
X126451428Y-53100857D01*
X126451428Y-53886571D01*
X125094285Y-53815142D02*
X125237142Y-53886571D01*
X125522857Y-53886571D01*
X125665714Y-53815142D01*
X125737142Y-53743714D01*
X125808571Y-53600857D01*
X125808571Y-53172285D01*
X125737142Y-53029428D01*
X125665714Y-52958000D01*
X125522857Y-52886571D01*
X125237142Y-52886571D01*
X125094285Y-52958000D01*
X123880000Y-53815142D02*
X124022857Y-53886571D01*
X124308571Y-53886571D01*
X124451428Y-53815142D01*
X124522857Y-53672285D01*
X124522857Y-53100857D01*
X124451428Y-52958000D01*
X124308571Y-52886571D01*
X124022857Y-52886571D01*
X123880000Y-52958000D01*
X123808571Y-53100857D01*
X123808571Y-53243714D01*
X124522857Y-53386571D01*
X122094285Y-53458000D02*
X121380000Y-53458000D01*
X122237142Y-53886571D02*
X121737142Y-52386571D01*
X121237142Y-53886571D01*
X120094285Y-53886571D02*
X120094285Y-52386571D01*
X120094285Y-53815142D02*
X120237142Y-53886571D01*
X120522857Y-53886571D01*
X120665714Y-53815142D01*
X120737142Y-53743714D01*
X120808571Y-53600857D01*
X120808571Y-53172285D01*
X120737142Y-53029428D01*
X120665714Y-52958000D01*
X120522857Y-52886571D01*
X120237142Y-52886571D01*
X120094285Y-52958000D01*
X118737142Y-53886571D02*
X118737142Y-53100857D01*
X118808571Y-52958000D01*
X118951428Y-52886571D01*
X119237142Y-52886571D01*
X119380000Y-52958000D01*
X118737142Y-53815142D02*
X118880000Y-53886571D01*
X119237142Y-53886571D01*
X119380000Y-53815142D01*
X119451428Y-53672285D01*
X119451428Y-53529428D01*
X119380000Y-53386571D01*
X119237142Y-53315142D01*
X118880000Y-53315142D01*
X118737142Y-53243714D01*
X118022857Y-52886571D02*
X118022857Y-54386571D01*
X118022857Y-52958000D02*
X117880000Y-52886571D01*
X117594285Y-52886571D01*
X117451428Y-52958000D01*
X117380000Y-53029428D01*
X117308571Y-53172285D01*
X117308571Y-53600857D01*
X117380000Y-53743714D01*
X117451428Y-53815142D01*
X117594285Y-53886571D01*
X117880000Y-53886571D01*
X118022857Y-53815142D01*
X116880000Y-52886571D02*
X116308571Y-52886571D01*
X116665714Y-52386571D02*
X116665714Y-53672285D01*
X116594285Y-53815142D01*
X116451428Y-53886571D01*
X116308571Y-53886571D01*
X115237142Y-53815142D02*
X115380000Y-53886571D01*
X115665714Y-53886571D01*
X115808571Y-53815142D01*
X115880000Y-53672285D01*
X115880000Y-53100857D01*
X115808571Y-52958000D01*
X115665714Y-52886571D01*
X115380000Y-52886571D01*
X115237142Y-52958000D01*
X115165714Y-53100857D01*
X115165714Y-53243714D01*
X115880000Y-53386571D01*
X114522857Y-53886571D02*
X114522857Y-52886571D01*
X114522857Y-53172285D02*
X114451428Y-53029428D01*
X114380000Y-52958000D01*
X114237142Y-52886571D01*
X114094285Y-52886571D01*
X111951428Y-53100857D02*
X111737142Y-53172285D01*
X111665714Y-53243714D01*
X111594285Y-53386571D01*
X111594285Y-53600857D01*
X111665714Y-53743714D01*
X111737142Y-53815142D01*
X111880000Y-53886571D01*
X112451428Y-53886571D01*
X112451428Y-52386571D01*
X111951428Y-52386571D01*
X111808571Y-52458000D01*
X111737142Y-52529428D01*
X111665714Y-52672285D01*
X111665714Y-52815142D01*
X111737142Y-52958000D01*
X111808571Y-53029428D01*
X111951428Y-53100857D01*
X112451428Y-53100857D01*
X110737142Y-53886571D02*
X110880000Y-53815142D01*
X110951428Y-53743714D01*
X111022857Y-53600857D01*
X111022857Y-53172285D01*
X110951428Y-53029428D01*
X110880000Y-52958000D01*
X110737142Y-52886571D01*
X110522857Y-52886571D01*
X110380000Y-52958000D01*
X110308571Y-53029428D01*
X110237142Y-53172285D01*
X110237142Y-53600857D01*
X110308571Y-53743714D01*
X110380000Y-53815142D01*
X110522857Y-53886571D01*
X110737142Y-53886571D01*
X108951428Y-53886571D02*
X108951428Y-53100857D01*
X109022857Y-52958000D01*
X109165714Y-52886571D01*
X109451428Y-52886571D01*
X109594285Y-52958000D01*
X108951428Y-53815142D02*
X109094285Y-53886571D01*
X109451428Y-53886571D01*
X109594285Y-53815142D01*
X109665714Y-53672285D01*
X109665714Y-53529428D01*
X109594285Y-53386571D01*
X109451428Y-53315142D01*
X109094285Y-53315142D01*
X108951428Y-53243714D01*
X108237142Y-53886571D02*
X108237142Y-52886571D01*
X108237142Y-53172285D02*
X108165714Y-53029428D01*
X108094285Y-52958000D01*
X107951428Y-52886571D01*
X107808571Y-52886571D01*
X106665714Y-53886571D02*
X106665714Y-52386571D01*
X106665714Y-53815142D02*
X106808571Y-53886571D01*
X107094285Y-53886571D01*
X107237142Y-53815142D01*
X107308571Y-53743714D01*
X107380000Y-53600857D01*
X107380000Y-53172285D01*
X107308571Y-53029428D01*
X107237142Y-52958000D01*
X107094285Y-52886571D01*
X106808571Y-52886571D01*
X106665714Y-52958000D01*
X127487142Y-55436571D02*
X126915714Y-55436571D01*
X127272857Y-56436571D02*
X127272857Y-55150857D01*
X127201428Y-55008000D01*
X127058571Y-54936571D01*
X126915714Y-54936571D01*
X126201428Y-56436571D02*
X126344285Y-56365142D01*
X126415714Y-56293714D01*
X126487142Y-56150857D01*
X126487142Y-55722285D01*
X126415714Y-55579428D01*
X126344285Y-55508000D01*
X126201428Y-55436571D01*
X125987142Y-55436571D01*
X125844285Y-55508000D01*
X125772857Y-55579428D01*
X125701428Y-55722285D01*
X125701428Y-56150857D01*
X125772857Y-56293714D01*
X125844285Y-56365142D01*
X125987142Y-56436571D01*
X126201428Y-56436571D01*
X125058571Y-56436571D02*
X125058571Y-55436571D01*
X125058571Y-55722285D02*
X124987142Y-55579428D01*
X124915714Y-55508000D01*
X124772857Y-55436571D01*
X124630000Y-55436571D01*
X123058571Y-55079428D02*
X122987142Y-55008000D01*
X122844285Y-54936571D01*
X122487142Y-54936571D01*
X122344285Y-55008000D01*
X122272857Y-55079428D01*
X122201428Y-55222285D01*
X122201428Y-55365142D01*
X122272857Y-55579428D01*
X123130000Y-56436571D01*
X122201428Y-56436571D01*
X120558571Y-54936571D02*
X119630000Y-54936571D01*
X120130000Y-55508000D01*
X119915714Y-55508000D01*
X119772857Y-55579428D01*
X119701428Y-55650857D01*
X119630000Y-55793714D01*
X119630000Y-56150857D01*
X119701428Y-56293714D01*
X119772857Y-56365142D01*
X119915714Y-56436571D01*
X120344285Y-56436571D01*
X120487142Y-56365142D01*
X120558571Y-56293714D01*
X119058571Y-56365142D02*
X118915714Y-56436571D01*
X118630000Y-56436571D01*
X118487142Y-56365142D01*
X118415714Y-56222285D01*
X118415714Y-56150857D01*
X118487142Y-56008000D01*
X118630000Y-55936571D01*
X118844285Y-55936571D01*
X118987142Y-55865142D01*
X119058571Y-55722285D01*
X119058571Y-55650857D01*
X118987142Y-55508000D01*
X118844285Y-55436571D01*
X118630000Y-55436571D01*
X118487142Y-55508000D01*
X115915714Y-56436571D02*
X116630000Y-56436571D01*
X116630000Y-54936571D01*
X115415714Y-56436571D02*
X115415714Y-55436571D01*
X115415714Y-54936571D02*
X115487142Y-55008000D01*
X115415714Y-55079428D01*
X115344285Y-55008000D01*
X115415714Y-54936571D01*
X115415714Y-55079428D01*
X114701428Y-55436571D02*
X114701428Y-56936571D01*
X114701428Y-55508000D02*
X114558571Y-55436571D01*
X114272857Y-55436571D01*
X114130000Y-55508000D01*
X114058571Y-55579428D01*
X113987142Y-55722285D01*
X113987142Y-56150857D01*
X114058571Y-56293714D01*
X114130000Y-56365142D01*
X114272857Y-56436571D01*
X114558571Y-56436571D01*
X114701428Y-56365142D01*
X113130000Y-56436571D02*
X113272857Y-56365142D01*
X113344285Y-56293714D01*
X113415714Y-56150857D01*
X113415714Y-55722285D01*
X113344285Y-55579428D01*
X113272857Y-55508000D01*
X113130000Y-55436571D01*
X112915714Y-55436571D01*
X112772857Y-55508000D01*
X112701428Y-55579428D01*
X112630000Y-55722285D01*
X112630000Y-56150857D01*
X112701428Y-56293714D01*
X112772857Y-56365142D01*
X112915714Y-56436571D01*
X113130000Y-56436571D01*
X112058571Y-56365142D02*
X111915714Y-56436571D01*
X111630000Y-56436571D01*
X111487142Y-56365142D01*
X111415714Y-56222285D01*
X111415714Y-56150857D01*
X111487142Y-56008000D01*
X111630000Y-55936571D01*
X111844285Y-55936571D01*
X111987142Y-55865142D01*
X112058571Y-55722285D01*
X112058571Y-55650857D01*
X111987142Y-55508000D01*
X111844285Y-55436571D01*
X111630000Y-55436571D01*
X111487142Y-55508000D01*
M02*
