G04 #@! TF.GenerationSoftware,KiCad,Pcbnew,(5.1.2)-1*
G04 #@! TF.CreationDate,2019-05-07T16:05:56+02:00*
G04 #@! TF.ProjectId,Balance_Adapter_Board_For_2_3s_Lipos,42616c61-6e63-4655-9f41-646170746572,rev?*
G04 #@! TF.SameCoordinates,Original*
G04 #@! TF.FileFunction,Copper,L2,Bot*
G04 #@! TF.FilePolarity,Positive*
%FSLAX46Y46*%
G04 Gerber Fmt 4.6, Leading zero omitted, Abs format (unit mm)*
G04 Created by KiCad (PCBNEW (5.1.2)-1) date 2019-05-07 16:05:56*
%MOMM*%
%LPD*%
G04 APERTURE LIST*
%ADD10O,6.000000X7.000000*%
%ADD11O,3.000000X4.000000*%
%ADD12R,5.000000X5.000000*%
%ADD13C,5.000000*%
%ADD14R,1.750000X2.500000*%
%ADD15O,1.750000X2.500000*%
%ADD16C,0.750000*%
%ADD17C,2.000000*%
G04 APERTURE END LIST*
D10*
X107950000Y-69930000D03*
X107950000Y-61730000D03*
X135890000Y-61730000D03*
X135890000Y-69930000D03*
D11*
X144780000Y-65620000D03*
X144780000Y-71620000D03*
X99060000Y-71620000D03*
X99060000Y-65620000D03*
D12*
X125730000Y-62230000D03*
D13*
X118110000Y-62230000D03*
D14*
X137280000Y-78740000D03*
D15*
X139780000Y-78740000D03*
X142280000Y-78740000D03*
X144780000Y-78740000D03*
X106560000Y-78740000D03*
X104060000Y-78740000D03*
X101560000Y-78740000D03*
D14*
X99060000Y-78740000D03*
D15*
X114300000Y-81280000D03*
X116840000Y-81280000D03*
X119380000Y-81280000D03*
X121920000Y-81280000D03*
X124460000Y-81280000D03*
X127000000Y-81280000D03*
D14*
X129540000Y-81280000D03*
D16*
X139780000Y-77502564D02*
X139780000Y-78740000D01*
X138477436Y-76200000D02*
X139780000Y-77502564D01*
X127000000Y-81280000D02*
X127000000Y-80010000D01*
X130810000Y-76200000D02*
X138477436Y-76200000D01*
X127000000Y-80010000D02*
X130810000Y-76200000D01*
X142280000Y-77502564D02*
X142280000Y-78740000D01*
X139707436Y-74930000D02*
X142280000Y-77502564D01*
X124460000Y-81280000D02*
X124460000Y-80010000D01*
X129540000Y-74930000D02*
X139707436Y-74930000D01*
X124460000Y-80010000D02*
X129540000Y-74930000D01*
X144780000Y-78740000D02*
X144780000Y-71120000D01*
D17*
X124460000Y-76200000D02*
X131230000Y-69430000D01*
X112610000Y-69430000D02*
X119380000Y-76200000D01*
D16*
X121920000Y-81280000D02*
X121920000Y-76200000D01*
D17*
X119380000Y-76200000D02*
X121920000Y-76200000D01*
X121920000Y-76200000D02*
X124460000Y-76200000D01*
X107950000Y-69430000D02*
X112610000Y-69430000D01*
X131230000Y-69430000D02*
X135890000Y-69430000D01*
X106260000Y-71120000D02*
X107950000Y-69430000D01*
X99060000Y-71120000D02*
X106260000Y-71120000D01*
X137580000Y-71120000D02*
X135890000Y-69430000D01*
X144780000Y-71120000D02*
X137580000Y-71120000D01*
D16*
X99060000Y-78740000D02*
X99060000Y-71120000D01*
X101560000Y-78365000D02*
X101560000Y-78740000D01*
X104995000Y-74930000D02*
X101560000Y-78365000D01*
X114300000Y-74930000D02*
X104995000Y-74930000D01*
X119380000Y-81280000D02*
X119380000Y-80010000D01*
X119380000Y-80010000D02*
X114300000Y-74930000D01*
X104060000Y-78365000D02*
X104060000Y-78740000D01*
X106225000Y-76200000D02*
X104060000Y-78365000D01*
X113030000Y-76200000D02*
X106225000Y-76200000D01*
X116840000Y-80010000D02*
X113030000Y-76200000D01*
X116840000Y-81280000D02*
X116840000Y-80010000D01*
X96520000Y-68660000D02*
X99060000Y-66120000D01*
X97790000Y-81280000D02*
X106680000Y-81280000D01*
X96520000Y-80010000D02*
X96520000Y-68660000D01*
X97790000Y-81280000D02*
X96520000Y-80010000D01*
D17*
X118110000Y-62230000D02*
X107950000Y-62230000D01*
X102950000Y-62230000D02*
X99060000Y-66120000D01*
X107950000Y-62230000D02*
X102950000Y-62230000D01*
D16*
X106560000Y-81160000D02*
X106680000Y-81280000D01*
X106560000Y-78740000D02*
X106560000Y-81160000D01*
X106680000Y-81280000D02*
X114300000Y-81280000D01*
X147320000Y-68660000D02*
X144780000Y-66120000D01*
X147320000Y-80010000D02*
X147320000Y-68660000D01*
X138430000Y-81280000D02*
X146050000Y-81280000D01*
X146050000Y-81280000D02*
X147320000Y-80010000D01*
X137280000Y-81280000D02*
X138430000Y-81280000D01*
X137280000Y-79965000D02*
X137280000Y-81280000D01*
X137280000Y-78740000D02*
X137280000Y-79965000D01*
X129540000Y-81280000D02*
X137280000Y-81280000D01*
D17*
X125730000Y-62230000D02*
X135890000Y-62230000D01*
X140890000Y-62230000D02*
X144780000Y-66120000D01*
X135890000Y-62230000D02*
X140890000Y-62230000D01*
M02*
